<?xml version="1.0" encoding="utf-8"?>
<!-- Generated by IcoMoon.io -->
<!DOCTYPE svg PUBLIC "-//W3C//DTD SVG 1.1//EN" "http://www.w3.org/Graphics/SVG/1.1/DTD/svg11.dtd">
<svg version="1.1" xmlns="http://www.w3.org/2000/svg" xmlns:xlink="http://www.w3.org/1999/xlink" width="512" height="512" viewBox="0 0 512 512">
<g>
</g>
	<path d="M256 0l-256 160h512l-256-160zM400 192l16 32v192h64v-192l16-32h-96zM272 192l16 32v192h64v-192l16-32h-96zM144 192l16 32v192h64v-192l16-32h-96zM16 192l16 32v192h64v-192l16-32h-96zM16 448l-16 64h512l-16-64h-480zM288 96c0 17.673-14.327 32-32 32s-32-14.327-32-32 14.327-32 32-32c17.673 0 32 14.327 32 32z" fill="#000000" />
</svg>
